<svg xmlns="http://www.w3.org/2000/svg" version="1.2" viewBox="0 0 1000 1000" width="1000" height="1000"><style>
		.s0 { fill: #0a0a0a;stroke: #000000;stroke-miterlimit:10 } 
		.s1 { fill: #fafafa } 
	</style><g id="Layer 1">
		<path id="Shape 1" fill-rule="evenodd" class="s0" d="m193.44 14h613.12c104.08 0 188.44 84.36 188.44 188.44v594.84c0 104.08-84.36 188.44-188.44 188.44h-613.12c-104.08 0-188.44-84.36-188.44-188.44v-594.84c0-104.08 84.36-188.44 188.44-188.44z"></path>
		<path id="S" class="s1" d="m365.34 609.52h269.32q19.74 0 32.24-1.85 12.65-2.7 18.9-8.95 7.1-7.1 8.94-19.74 2.7-12.5 2.7-32.25v-39.49q0-16.19-1.84-26.13-0.86-9.8-6.25-15.2-4.41-5.4-14.35-7.25-9.94-1.7-25.99-1.7h-292.76q-26.85 0-43.04-2.7-16.19-2.7-25.14-10.79-8.1-8.95-10.8-25.15-1.7-17.04-1.7-44.03v-43.04q0-26.99 1.7-43.18 2.7-16.05 10.8-24.15 8.95-8.95 25.14-10.79 16.19-2.7 43.04-2.7h278.41q26.85 0 43.04 2.7 16.19 1.84 24.29 10.79 8.95 8.1 10.65 24.15 2.7 16.19 2.7 43.18v8.95h-26.85v-8.95q0-18.89-1.84-29.69-0.85-10.79-6.25-16.19-5.4-5.26-16.2-6.25-10.79-1.71-29.54-1.71h-278.41q-18.75 0-29.55 1.71-10.79 0.99-16.19 6.25-5.4 5.4-7.1 16.19-1 10.8-1 29.69v43.04q0 18.89 1 29.69 1.7 10.79 7.1 16.05 5.4 5.4 16.19 7.24 10.8 0.86 29.55 0.86h292.76q25.14 0 39.48 2.69 15.2 2.7 23.3 10.8 8.1 8.1 9.94 24.29 2.7 15.2 2.7 41.33v192.05q0 26.99-3.69 44.89-3.55 17.04-14.35 27.84-9.8 9.8-27.84 13.49-17.04 3.55-43.89 3.55h-269.32q-26.99 0-44.89-3.55-17.04-3.69-27.84-13.49-9.94-10.8-13.49-27.84-3.55-17.9-3.55-44.89v-148.15h26.84q0 18.04 1.85 29.68 2.7 11.65 8.95 17.9 7.24 6.25 19.74 8.95 12.65 1.85 32.39 1.85z"></path>
	</g></svg>