<svg version="1.2" xmlns="http://www.w3.org/2000/svg" viewBox="0 0 1200 1227" width="1200" height="1227">
	<style>
		.s0 { fill: #000000 } 
		.s1 { fill: #ffffff } 
	</style>
	<path id="Shape 1" fill-rule="evenodd" class="s0" d="m600 1196c-322.4 0-583-260.6-583-583 0-322.4 260.6-583 583-583 322.4 0 583 260.6 583 583 0 322.4-260.6 583-583 583z"/>
	<path class="s1" d="m658.72 565.2l228.15-265.2h-54.07l-198.09 230.27-158.22-230.27h-182.49l239.26 348.21-239.26 278.1h54.07l209.19-243.17 167.09 243.17h182.49l-248.13-361.11zm-74.05 86.07l-24.24-34.67-192.89-275.9h83.04l155.66 222.66 24.25 34.67 202.34 289.43h-83.05l-165.11-236.17z"/>
</svg>